<svg viewBox="271.267 419.85 95.789 14.075" width="100px" height="25px" xmlns="http://www.w3.org/2000/svg">
  <defs></defs>
  <rect x="271.2" y="419.908" width="1.706" height="13.927" style="fill: rgb(216, 216, 216); stroke: rgba(0, 0, 0, 0);"></rect>
  <rect x="275.296" y="419.908" width="1.706" height="13.927" style="fill: rgb(216, 216, 216); stroke: rgba(0, 0, 0, 0);"></rect>
  <rect x="279.392" y="419.908" width="1.706" height="13.927" style="fill: rgb(216, 216, 216); stroke: rgba(0, 0, 0, 0);"></rect>
  <rect x="283.487" y="419.908" width="1.706" height="13.927" style="fill: rgb(216, 216, 216); stroke: rgba(0, 0, 0, 0);"></rect>
  <rect x="287.586" y="419.908" width="1.706" height="13.927" style="fill: rgb(216, 216, 216); stroke: rgba(0, 0, 0, 0);"></rect>
  <rect x="291.68" y="419.908" width="1.706" height="13.927" style="fill: rgb(216, 216, 216); stroke: rgba(0, 0, 0, 0);"></rect>
  <rect x="295.776" y="419.908" width="1.706" height="13.927" style="fill: rgb(216, 216, 216); stroke: rgba(0, 0, 0, 0);"></rect>
  <rect x="299.872" y="419.908" width="1.706" height="13.927" style="fill: rgb(216, 216, 216); stroke: rgba(0, 0, 0, 0);"></rect>
  <rect x="303.968" y="419.908" width="1.706" height="13.927" style="fill: rgb(216, 216, 216); stroke: rgba(0, 0, 0, 0);"></rect>
  <rect x="308.064" y="419.908" width="1.706" height="13.927" style="fill: rgb(216, 216, 216); stroke: rgba(0, 0, 0, 0);"></rect>
  <rect x="312.159" y="419.908" width="1.706" height="13.927" style="fill: rgb(216, 216, 216); stroke: rgba(0, 0, 0, 0);"></rect>
  <rect x="316.256" y="419.908" width="1.706" height="13.927" style="fill: rgb(216, 216, 216); stroke: rgba(0, 0, 0, 0);"></rect>
  <rect x="320.353" y="419.908" width="1.706" height="13.927" style="fill: rgb(216, 216, 216); stroke: rgba(0, 0, 0, 0);"></rect>
  <rect x="324.448" y="419.908" width="1.706" height="13.927" style="fill: rgb(216, 216, 216); stroke: rgba(0, 0, 0, 0);"></rect>
  <rect x="328.546" y="419.908" width="1.706" height="13.927" style="fill: rgb(216, 216, 216); stroke: rgba(0, 0, 0, 0);"></rect>
  <rect x="332.641" y="419.908" width="1.706" height="13.927" style="fill: rgb(216, 216, 216); stroke: rgba(0, 0, 0, 0);"></rect>
  <rect x="336.736" y="419.908" width="1.706" height="13.927" style="fill: rgb(216, 216, 216); stroke: rgba(0, 0, 0, 0);"></rect>
  <rect x="340.832" y="419.908" width="1.706" height="13.927" style="fill: rgb(216, 216, 216); stroke: rgba(0, 0, 0, 0);"></rect>
  <rect x="344.929" y="419.908" width="1.706" height="13.927" style="fill: rgb(216, 216, 216); stroke: rgba(0, 0, 0, 0);"></rect>
  <rect x="349.025" y="419.908" width="1.706" height="13.927" style="fill: rgb(216, 216, 216); stroke: rgba(0, 0, 0, 0);"></rect>
  <rect x="353.121" y="419.908" width="1.706" height="13.927" style="fill: rgb(216, 216, 216); stroke: rgba(0, 0, 0, 0);"></rect>
  <rect x="357.216" y="419.908" width="1.706" height="13.927" style="fill: rgb(216, 216, 216); stroke: rgba(0, 0, 0, 0);"></rect>
  <rect x="361.312" y="419.908" width="1.706" height="13.927" style="fill: rgb(216, 216, 216); stroke: rgba(0, 0, 0, 0);"></rect>
  <rect x="365.408" y="419.908" width="1.706" height="13.927" style="fill: rgb(216, 216, 216); stroke: rgba(0, 0, 0, 0);"></rect>
</svg>