<svg xmlns="http://www.w3.org/2000/svg" width="60" height="60" viewBox="0 0 60 60">
  <defs>
    <style>
      .cls-1 {
        fill: #fff;
        fill-rule: evenodd;
        opacity: 0.8;
      }
    </style>
  </defs>
  <path id="Shape_577_copy" data-name="Shape 577 copy" class="cls-1" d="M30,3A27,27,0,1,1,3,30,27.03,27.03,0,0,1,30,3m0-3A30,30,0,1,0,60,30,30,30,0,0,0,30,0h0ZM41.986,26.745L26.013,16.232c-2.757-1.814-5.013-.6-5.013,2.7V41.06c0,3.3,2.259,4.521,5.021,2.714L41.98,33.329C44.74,31.52,44.743,28.558,41.986,26.745Zm-2.129,4.379L25.673,40.406A0.986,0.986,0,0,1,24,39.5V20.491a0.983,0.983,0,0,1,1.671-.9l14.19,9.338A1.218,1.218,0,0,1,39.858,31.124Z"/>
</svg>
